<svg width="65" height="65" viewBox="0 0 65 65" fill="none" xmlns="http://www.w3.org/2000/svg">
<path d="M44.7197 54.7057C45.1477 54.7046 45.5663 54.8306 45.9226 55.0676C46.2789 55.3045 46.5569 55.6419 46.7214 56.037C46.8859 56.432 46.9295 56.867 46.8466 57.2868C46.7638 57.7066 46.5582 58.0925 46.256 58.3954C45.9538 58.6984 45.5685 58.9049 45.1488 58.9887C44.7292 59.0726 44.2942 59.0301 43.8987 58.8666C43.5032 58.703 43.1652 58.4259 42.9273 58.0701C42.6895 57.7144 42.5625 57.2961 42.5625 56.8682C42.5618 56.5844 42.6171 56.3034 42.7252 56.041C42.8333 55.7787 42.9921 55.5403 43.1925 55.3394C43.3929 55.1385 43.6309 54.9791 43.893 54.8704C44.1551 54.7617 44.436 54.7057 44.7197 54.7057ZM46.6284 22.6542C47.0958 22.7708 47.5075 23.0478 47.7916 23.4368C48.3627 24.1717 48.5213 25.3613 48.3627 26.6091C48.2179 27.7742 47.819 28.8933 47.1942 29.8872C46.5015 30.9447 45.608 31.6267 44.5505 31.558C44.4765 35 42.7899 36.5809 40.5904 38.6482L39.7497 39.4466L39.4642 39.7163L39.5329 39.7639C39.2675 39.9758 38.9884 40.1701 38.6975 40.3455C37.9542 40.899 37.1327 41.3391 36.2601 41.6514C35.097 42.0528 33.874 42.2531 32.6436 42.2436C31.3667 42.2633 30.0956 42.0666 28.8844 41.662L28.3556 41.4716C27.662 41.2639 26.9975 40.969 26.3782 40.594L26.1138 40.4301C25.8202 41.3164 25.4189 42.1634 24.9189 42.9521L33.1248 48.6676L40.8336 42.2436C40.3539 41.4927 39.9585 40.6913 39.6545 39.8537C43.0542 42.27 43.7892 47.3141 43.6781 51.3853C43.6781 51.914 43.6464 52.0515 43.6358 52.226C42.8119 52.4095 42.0524 52.8111 41.4368 53.3887C40.8212 53.9663 40.3721 54.6987 40.1365 55.5093C39.9009 56.3199 39.8874 57.1789 40.0975 57.9965C40.3075 58.8141 40.7334 59.5602 41.3306 60.1569C42.1179 61.0126 43.2066 61.5294 44.3674 61.5984C45.5282 61.6674 46.6705 61.2833 47.5537 60.527C48.116 60.0876 48.571 59.526 48.8843 58.8848C49.1976 58.2436 49.3609 57.5395 49.362 56.8259C49.3621 56.0828 49.1651 55.353 48.7909 54.711C47.9978 53.3363 47.136 52.9344 45.8195 52.2788C45.7296 52.2312 45.8195 52.0303 45.8195 51.4699C45.936 48.9637 45.6758 46.4543 45.0475 44.0254C45.6238 44.326 46.2253 44.5755 46.8452 44.7709C51.5509 45.8812 57.3352 46.3571 59.4078 47.5203C60.4353 48.0802 61.3355 48.8471 62.0514 49.7727C63.8861 52.1942 64.0394 59.1629 64.695 62.1237C64.5311 63.858 63.553 64.852 61.6179 65H3.07719C1.14734 64.8202 0.163905 63.8209 0 62.092C0.666196 59.1311 0.824814 52.1572 2.64364 49.7409C3.3624 48.8079 4.2729 48.0398 5.31371 47.4886C8.25872 45.8495 15.4758 45.4054 20.2767 44.073C19.8247 45.443 19.5441 46.8638 19.4413 48.3028C18.9126 48.7099 17.5167 49.1858 17.0779 49.7092C16.3135 50.6223 15.6306 51.6007 15.037 52.6331C14.9438 52.7937 14.8946 52.9761 14.8942 53.1618C14.8942 53.3098 15.0476 53.4632 14.9841 53.5901L14.8837 53.7857C13.509 56.4293 12.6154 59.3955 13.0384 60.6592C13.1523 60.9599 13.3397 61.2273 13.5835 61.437C13.8274 61.6466 14.1198 61.7919 14.4342 61.8594C14.9779 62.0026 15.5376 62.0754 16.0997 62.0761C16.2636 62.0761 16.4328 62.0761 16.5967 62.0761C16.6808 62.1544 16.773 62.2235 16.8717 62.2823C16.9844 62.3493 17.103 62.4059 17.2259 62.4515C17.3796 62.5103 17.5426 62.5407 17.7071 62.5414C17.8827 62.5414 18.0566 62.5066 18.2186 62.4389C18.3807 62.3712 18.5277 62.272 18.6511 62.1471C18.7746 62.0222 18.872 61.874 18.9377 61.7112C19.0035 61.5483 19.0363 61.3741 19.0342 61.1985C19.03 61.0158 18.9887 60.8359 18.9126 60.6697C18.8109 60.4191 18.6369 60.2043 18.4129 60.0527C18.1888 59.9011 17.9247 59.8196 17.6542 59.8185C17.1678 59.8185 16.4751 60.0617 16.4751 60.5481V60.5798H16.1367C15.7215 60.5835 15.3074 60.5337 14.9048 60.4318C14.6669 60.3684 14.5294 60.2785 14.4977 60.178C14.191 59.2897 15.0264 56.8312 16.2372 54.4519L16.3905 54.1611C16.6148 54.071 16.8014 53.9068 16.9193 53.6958C17.4426 52.7774 18.0459 51.9069 18.7222 51.0945C19.2243 50.6347 19.8421 50.3203 20.5093 50.1851H20.6204C20.9527 50.424 21.2577 50.6988 21.5298 51.0046C22.2515 51.8196 22.8891 52.7053 23.4332 53.6482C23.5548 53.865 23.8509 53.9126 23.9619 54.1188C25.363 56.3817 26.1508 58.9778 25.9605 59.9665C25.9182 60.1992 25.7279 60.3366 25.4318 60.4318C24.9801 60.5552 24.5147 60.6209 24.0465 60.6274C24.031 60.5929 24.0133 60.5593 23.9936 60.527C23.9936 60.0405 23.2957 59.8132 22.8093 59.7973C22.5388 59.7984 22.2747 59.88 22.0506 60.0316C21.8266 60.1831 21.6526 60.3979 21.5509 60.6486C21.4771 60.8155 21.4358 60.9949 21.4293 61.1773C21.4293 61.5293 21.5691 61.8668 21.818 62.1157C22.0669 62.3646 22.4044 62.5044 22.7564 62.5044C22.9226 62.5038 23.0874 62.4733 23.2428 62.4145C23.3641 62.3689 23.4809 62.3123 23.5918 62.2453C23.6581 62.2056 23.7217 62.1614 23.7821 62.1132H23.9725C24.6267 62.127 25.2792 62.0415 25.9076 61.8594C26.2912 61.7666 26.64 61.565 26.9119 61.279C27.1839 60.993 27.3676 60.6346 27.4409 60.2467C27.6736 58.9566 26.7377 56.1121 25.3577 53.5319C25.4154 53.3966 25.4442 53.2507 25.4423 53.1036C25.4374 52.9179 25.3865 52.7362 25.2943 52.5749C24.6716 51.5021 23.9456 50.4927 23.1265 49.5612C22.6877 49.0695 21.7201 48.9267 21.6196 48.2711C21.3553 46.5633 22.0955 44.4484 23.2058 42.6084C23.4962 42.2456 23.7545 41.8581 23.9778 41.4505L24.147 41.2179C24.6497 40.7103 25.2686 40.3328 25.9499 40.1181C25.6926 39.9242 25.4335 39.7127 25.1727 39.4836L24.3585 38.754L24.3056 38.7064C22.1907 36.8664 20.3877 35.3067 20.0758 31.5369C18.6059 31.41 17.5643 30.0141 17.0514 28.3645C16.7822 27.485 16.666 26.5657 16.7078 25.6468C16.7144 24.7793 16.9937 23.9359 17.5062 23.2358C17.6048 23.1099 17.7165 22.9947 17.8393 22.8922L17.7652 22.8446C17.4268 18.6148 18.4156 11.3078 13.8368 9.9225C22.4762 -0.821236 31.9933 -2.7881 39.9718 3.76812C48.2622 4.22811 52.2647 16.1985 46.6284 22.6542ZM22.307 20.0106C21.9018 21.3147 21.8652 22.7054 22.2012 24.0289C22.2573 24.2111 22.2529 24.4065 22.1887 24.5859C22.1245 24.7653 22.004 24.9192 21.8452 25.0245C21.6863 25.1298 21.4977 25.1809 21.3074 25.1701C21.1172 25.1594 20.9355 25.0873 20.7895 24.9648C19.7321 24.066 19.0923 23.9814 18.8174 24.3092C18.5533 24.7186 18.4154 25.1967 18.4209 25.6839C18.3884 26.3991 18.4796 27.1146 18.6905 27.7988C19.05 28.9778 19.748 29.9454 20.5833 29.7022C20.6651 29.6745 20.7508 29.6602 20.8371 29.6599C20.9531 29.6571 21.0685 29.6771 21.1767 29.7189C21.2849 29.7607 21.3838 29.8234 21.4678 29.9035C21.5517 29.9835 21.6191 30.0793 21.666 30.1854C21.7129 30.2915 21.7385 30.4057 21.7413 30.5217C21.8311 34.2228 23.4543 35.6345 25.4423 37.3423L25.4952 37.3846L26.3412 38.1248C27.2327 38.9363 28.2796 39.5586 29.4184 39.9542C30.1774 40.2097 30.9666 40.3643 31.7659 40.4142C32.3576 40.4257 32.9493 40.3974 33.5372 40.3296C34.335 40.2449 35.1229 40.0838 35.89 39.8485C36.8595 39.4559 37.7418 38.8755 38.486 38.1407L39.3426 37.3264C41.4575 35.349 43.0014 33.8897 42.7053 30.3419C42.6913 30.1764 42.7244 30.0103 42.8006 29.8628C42.8768 29.7152 42.993 29.5921 43.136 29.5076C43.2791 29.4231 43.443 29.3807 43.609 29.3852C43.7751 29.3897 43.9365 29.4409 44.0747 29.533C44.6721 29.9295 45.2643 29.533 45.7032 28.8774C46.1833 28.1109 46.4883 27.248 46.5967 26.3501C46.7415 25.7233 46.6649 25.0657 46.3799 24.4889C46.1684 24.214 45.6027 24.325 44.5135 25.1551C44.3756 25.2728 44.2047 25.3451 44.0242 25.3622C43.8438 25.3794 43.6624 25.3406 43.5047 25.2511C43.347 25.1616 43.2207 25.0257 43.143 24.8619C43.0652 24.6981 43.0398 24.5144 43.0701 24.3356C43.842 19.8203 43.4561 17.0286 42.4674 15.1675C41.6055 13.5813 40.2308 12.6031 38.7663 11.8259C35.5146 14.3109 33.2199 14.5912 30.9358 14.8767C29.0483 15.1093 27.1713 15.342 24.681 17.0603C23.5964 17.764 22.7676 18.7986 22.3176 20.0106H22.307Z" fill="#118B0F"/>
</svg>
