<svg width="70" height="70" viewBox="0 0 70 70" fill="none" xmlns="http://www.w3.org/2000/svg">
<path d="M36.6354 5.21725C36.9583 4.86615 37.1679 4.42594 37.237 3.954C37.3061 3.48205 37.2314 3.00023 37.0228 2.57131C36.8141 2.1424 36.4811 1.78627 36.0671 1.54931C35.6532 1.31236 35.1775 1.20558 34.7019 1.24287C34.3814 1.1997 34.0552 1.24298 33.757 1.36822C33.4588 1.49346 33.1995 1.69611 33.0059 1.95521C32.7673 2.15116 32.5838 2.40598 32.4738 2.6945C32.3637 2.98301 32.3308 3.29525 32.3784 3.60036C32.3784 4.45403 32.4801 4.62929 33.2433 5.33032C34.0066 6.03135 34.1366 6.08788 35.0977 5.98612C35.3974 5.99406 35.6945 5.92807 35.9627 5.79398C36.2309 5.65988 36.4619 5.46181 36.6354 5.21725ZM34.7359 64.392C34.6793 61.4692 34.5776 59.9031 34.4419 59.9088C34.3062 59.9145 34.2779 61.4974 34.3514 64.5107C34.4193 67.1226 34.5436 69.0335 34.6454 68.9996C34.7868 67.4679 34.8171 65.928 34.7359 64.392ZM33.7974 62.0571C33.7409 60.2876 33.4695 59.9371 32.9607 60.9717C32.5932 61.7123 32.7345 63.0521 33.2773 64.0528L33.6052 64.652L33.7239 64.1489C33.8095 63.4551 33.8341 62.7552 33.7974 62.0571ZM36.1153 63.9171C36.3923 63.3518 36.3301 61.4296 36.0305 61.1413C35.5782 60.7003 35.4991 60.9095 35.4652 62.6112C35.4652 63.8493 35.4991 64.3072 35.6743 64.3072C35.8496 64.3072 36.0079 64.1263 36.1153 63.9114V63.9171ZM37.7322 62.9334C38.976 60.8303 38.4558 59.2417 35.8779 57.2799L34.6624 56.3641C34.1398 55.949 33.669 55.4726 33.2603 54.9451C32.7572 54.244 32.695 54.0066 32.7515 52.9664L32.8137 51.7848L31.9713 51.276C31.6196 51.0291 31.2245 50.8507 30.8067 50.7502C29.953 50.7502 29.5686 53.3508 30.2074 54.7981C30.8463 56.2454 32.6837 57.7435 34.6228 58.4898C35.6348 58.8799 36.8107 60.101 36.9859 60.9547C37.1189 61.8565 37.0553 62.7765 36.7994 63.6514C36.675 64.098 36.6976 64.1206 36.9916 63.8719C37.2761 63.5761 37.5247 63.2479 37.7322 62.8938V62.9334ZM31.9657 62.7977C31.7791 61.4578 31.9657 60.5759 32.5649 59.9031C33.1642 59.2304 33.0624 58.8233 32.2936 58.6424C31.8469 58.5407 31.666 58.6424 31.2816 59.106C30.8972 59.5696 30.8237 59.8523 30.9254 61.0282C30.9437 61.7445 31.1378 62.4454 31.4908 63.0691C31.6464 63.3308 31.8366 63.5704 32.0561 63.7814C32.083 63.4522 32.062 63.1209 31.9939 62.7977H31.9657ZM37.8113 56.2906C38.2945 55.8696 38.6791 55.3475 38.938 54.7613C39.1969 54.1751 39.3238 53.5392 39.3095 52.8985C39.2756 50.9763 38.0601 49.3651 35.516 47.8613C34.0461 46.9963 32.6271 45.7921 32.2483 45.0911C32.0228 44.6128 31.9177 44.0866 31.9424 43.5584C31.967 43.0302 32.1206 42.516 32.3897 42.0608C32.955 41.2298 32.955 41.2524 31.1176 40.15C29.8852 39.4433 29.8004 39.4433 28.9976 41.0036C28.6159 41.7422 28.3985 42.5546 28.3605 43.385C28.3224 44.2155 28.4646 45.0444 28.7771 45.8147C29.0799 46.8574 29.6837 47.7876 30.5127 48.4888C31.2575 49.2244 32.1072 49.8455 33.0342 50.3318C35.5273 51.5304 36.7485 53.0907 36.0588 54.1932C35.847 54.6492 35.7481 55.1495 35.7704 55.6517C35.7704 57.2969 36.5167 57.5287 37.8113 56.3132V56.2906ZM34.9846 55.0412C34.9846 53.3904 34.7867 52.695 34.2892 52.7006C34.0235 52.7006 34.1309 55.3917 34.4136 55.6631C34.8376 56.0701 34.979 55.9175 34.979 55.0412H34.9846ZM33.673 53.1642C33.5826 52.8307 33.5712 52.8307 33.4356 53.1642C33.3535 53.3907 33.3535 53.6388 33.4356 53.8653C33.5882 54.1932 33.5995 54.1932 33.673 53.8653C33.7153 53.6335 33.7153 53.396 33.673 53.1642ZM38.8007 48.2627C39.5193 47.7654 40.1056 47.1002 40.5086 46.3248C40.9116 45.5494 41.119 44.6873 41.113 43.8134C41.2581 42.8739 41.0572 41.9136 40.5476 41.1111C40.2495 40.5125 39.8689 39.9587 39.4169 39.4659C38.0146 38.4024 36.5392 37.4389 35.0016 36.5826C34.6115 36.3961 33.7239 35.8816 33.0229 35.4519C31.9317 34.7622 31.6943 34.5022 31.3268 33.5976C30.6428 31.9016 30.7615 30.6861 31.7 29.6063C32.2653 28.99 32.0448 28.6734 30.7163 28.0346L29.5856 27.4693L28.8958 28.2777C27.833 29.5441 27.4825 30.59 27.5164 32.45C27.4577 33.4515 27.6894 34.4487 28.1835 35.3219C29.0521 36.9304 30.3729 38.2492 31.9826 39.1154C34.5154 40.5344 36.5732 41.9421 36.9407 42.5075C37.179 42.9265 37.3182 43.3945 37.3478 43.8756C37.3022 44.821 36.9352 45.7225 36.3075 46.431C35.7874 46.8776 35.974 47.392 36.8729 48.0026C37.9018 48.6923 38.0601 48.715 38.795 48.2457L38.8007 48.2627ZM35.1768 45.2777C35.1768 42.5696 35.1768 42.5131 34.5154 42.1852L33.9105 41.8912L33.9444 43.966C33.9783 45.8656 34.0292 46.1031 34.4306 46.4649C34.6793 46.6854 34.945 46.7984 34.9959 46.708C35.1239 46.2349 35.1735 45.7441 35.1429 45.255L35.1768 45.2777ZM36.4432 44.6162C36.4432 43.5251 36.0531 43.6608 36.0079 44.7632C35.974 45.5377 36.0079 45.7073 36.1945 45.5208C36.3634 45.2498 36.4498 44.9355 36.4432 44.6162ZM33.3847 43.4855C33.085 43.2028 32.8759 44.0509 33.0737 44.6953C33.2264 45.2155 33.2377 45.2098 33.413 44.4579C33.5317 43.9434 33.5204 43.6212 33.3847 43.4855ZM39.6035 36.8992C40.401 36.3076 41.038 35.5261 41.4567 34.6256C41.8753 33.7252 42.0623 32.7344 42.0006 31.7433C42.0332 31.026 41.8896 30.3117 41.5822 29.6628C41.1978 28.8996 39.4565 27.0057 39.1738 27.0057C38.6746 26.7904 38.1926 26.5372 37.7322 26.2481C36.558 25.6266 35.3252 25.1228 34.0518 24.7443C31.3551 23.9415 29.5629 23.003 28.6527 21.9176C28.1736 21.3905 27.9111 20.702 27.9178 19.9897C27.7991 18.729 27.9517 18.5255 28.5397 19.153C29.3594 20.0293 31.3664 19.7184 32.2088 18.6216C32.6554 18.0563 32.6045 17.6153 32.0674 17.4005C31.3254 17.1145 30.5241 17.0164 29.735 17.1151C28.9459 17.2137 28.1935 17.506 27.5447 17.9658C26.7535 18.494 26.1952 19.3057 25.9848 20.2335C25.7744 21.1612 25.928 22.1343 26.414 22.9521C27.3411 24.6482 28.6245 25.598 32.9889 27.6615C36.6637 29.3971 37.3251 29.8041 37.9018 30.703C38.6989 31.9355 38.2523 33.8803 36.8729 35.1862C36.104 35.9099 36.0362 36.2208 36.5506 36.6618C37.0923 37.0943 37.721 37.4047 38.3936 37.572C38.8367 37.4098 39.2467 37.1684 39.6035 36.8597V36.8992ZM35.4369 33.2245C35.533 30.6126 35.5273 30.5843 35.0525 30.2338C34.4362 29.7759 33.8709 29.6063 33.69 29.8211C33.5992 30.7612 33.5992 31.7078 33.69 32.6478C33.8539 35.2202 33.8709 35.3106 34.3627 35.565C35.2899 36.0512 35.3125 35.9947 35.4143 33.2188L35.4369 33.2245ZM37.0538 34.1686C37.3005 33.8387 37.4395 33.4407 37.4516 33.0289C37.4638 32.617 37.3485 32.2115 37.1216 31.8676C36.8898 31.5115 36.6128 31.274 36.5054 31.3419C36.251 31.5058 36.3075 34.6435 36.5676 34.6435C36.675 34.6435 36.8898 34.4287 37.0538 34.1686ZM33.1303 32.6026C33.0964 31.0705 33.0342 30.703 32.7967 30.7087C32.4575 30.7087 32.2031 31.161 32.0279 32.0655C31.9519 32.5984 32.0553 33.1413 32.3218 33.6089C32.9663 34.9997 33.1699 34.7396 33.1303 32.6026ZM39.8692 25.9428C41.7518 24.9196 43.3348 22.5508 43.4591 20.5947C43.527 19.464 43.4591 19.3396 42.8938 18.6046C42.4918 18.0552 41.9607 17.613 41.3475 17.3172C40.7342 17.0215 40.0576 16.8811 39.3773 16.9086C38.0488 16.9086 37.0029 17.3326 36.9068 17.8697C36.9821 18.2476 37.181 18.5897 37.4721 18.8421C37.9923 19.4074 38.224 19.4922 39.2586 19.5488C40.2932 19.6053 40.5193 19.5488 41.0621 19.0795C41.2793 18.8653 41.5269 18.6843 41.797 18.5425C41.9666 18.5425 41.7348 20.1537 41.4974 20.6512C40.5774 22.2888 39.1133 23.5528 37.3591 24.2242C36.3414 24.5747 36.4715 24.9535 37.8453 25.6432C39.0834 26.2651 39.2925 26.299 39.9144 25.9598L39.8692 25.9428ZM35.6008 24.1789C35.6687 23.444 35.7139 22.0476 35.8326 17.3157C35.9061 14.4493 35.9966 12.0014 36.0362 11.8657C36.0757 11.73 36.104 10.5654 36.104 9.26513V6.90198L34.7019 6.81153C34.2256 6.7535 33.7452 6.73648 33.266 6.76065C33.232 6.79457 33.2377 10.6163 33.266 15.2408C33.3225 21.8497 33.3903 23.721 33.5882 23.8171C34.1227 24.0967 34.6935 24.3003 35.2842 24.422C35.3506 24.4269 35.4163 24.4062 35.4678 24.3641C35.5193 24.3221 35.5528 24.2619 35.5613 24.1959L35.6008 24.1789ZM37.817 23.3988C38.7215 22.9635 40.1293 21.7027 40.1236 21.3579C40.1087 21.2905 40.0691 21.2311 40.0126 21.1913C39.9561 21.1516 39.8868 21.1344 39.8183 21.143C39.6544 21.143 39.5356 21.0469 39.5639 20.9169C39.5922 20.7869 39.2925 20.6116 38.9138 20.5155C38.3958 20.3447 37.9144 20.0781 37.4947 19.7297L36.7768 19.1191L36.7372 20.3855C36.6999 20.8406 36.7228 21.2987 36.805 21.748C37.153 21.7419 37.4958 21.663 37.8113 21.5162C39.0438 21.0695 38.942 21.3805 37.6813 22.0024C36.6693 22.4886 36.3867 22.9013 36.6354 23.5175C36.7824 23.885 36.822 23.8793 37.817 23.3988ZM32.8985 23.0483C32.7515 22.6864 30.3092 21.3522 29.8287 21.3522C29.4781 21.3522 29.5064 21.4257 30.0322 21.9571C31.2816 23.2122 33.2716 23.9754 32.8985 23.0878V23.0483ZM32.7628 21.731C32.8985 21.1261 32.9098 19.2774 32.7628 19.2831C32.4904 19.4111 32.2373 19.5766 32.0109 19.7749C31.6042 20.0847 31.1643 20.3483 30.6993 20.5607L30.0209 20.8491L31.2194 21.4144C32.695 22.138 32.6497 22.1324 32.7515 21.7027L32.7628 21.731ZM44.7764 17.3948C45.1972 16.9475 45.5864 16.4715 45.941 15.9701C46.2576 15.4613 46.252 15.4387 45.2739 14.4267C44.9204 14.0378 44.5427 13.6715 44.1432 13.33C43.7473 13.5072 43.3915 13.763 43.0973 14.0819C41.7744 15.2917 40.949 15.6422 39.3265 15.6818C38.6929 15.7069 38.0583 15.6899 37.4269 15.6309C36.969 15.5461 36.9237 15.597 36.9351 16.2358C36.9351 17.0104 36.9351 17.0047 38.5237 16.592C39.2405 16.4553 39.9786 16.4777 40.6858 16.6574C41.393 16.8371 42.0522 17.1699 42.6168 17.6322C42.915 17.9212 43.2716 18.1429 43.6627 18.2824C44.1022 18.0663 44.4884 17.7554 44.7934 17.3722L44.7764 17.3948ZM27.0189 17.751C27.3986 17.4379 27.8237 17.1844 28.2796 16.9991C28.9777 16.647 29.7668 16.5168 30.541 16.6259C31.0977 16.6501 31.6489 16.7471 32.1805 16.9143C32.6497 17.1574 32.808 16.9991 32.7967 16.3037V15.7383L31.1459 15.7779C30.2677 15.8665 29.381 15.7404 28.5623 15.4104C27.458 14.8142 26.5151 13.9586 25.8147 12.9173C25.5999 12.5667 25.5207 12.612 24.684 13.5504C24.311 13.921 24.005 14.3532 23.7795 14.8281C23.7795 15.3935 24.6444 16.6485 25.4755 17.3213C26.4083 18.0902 26.691 18.1637 27.0359 17.734L27.0189 17.751ZM49.2935 15.0825C49.7684 14.8847 49.6723 14.6698 48.9034 14.2119C48.2577 13.7122 47.6998 13.1085 47.2526 12.4254C46.4046 11.2043 46.2293 11.0573 45.6527 11.0686C44.2506 11.0686 44.1997 11.9392 45.517 13.296C46.2371 14.1598 47.2165 14.7685 48.3098 15.0317C48.6377 15.1051 48.926 15.1786 48.943 15.19C49.0644 15.1711 49.1824 15.1349 49.2935 15.0825ZM32.1127 14.619C32.6497 14.5002 32.7685 14.0084 32.7345 11.9675L32.7006 10.3167L31.5077 10.4693L30.3092 10.6107L29.3933 9.7061C28.2627 8.60933 28.1835 8.01006 29.1163 7.21858C29.5346 6.87966 29.8675 6.44738 30.0884 5.95646C30.3094 5.46554 30.4121 4.92966 30.3884 4.39185C30.4209 4.04628 30.3672 3.69804 30.232 3.37835C30.0968 3.05866 29.8844 2.77752 29.6138 2.56013C28.5906 1.47466 27.2789 0.999772 25.402 1.10719C24.1752 1.15807 23.7512 1.2881 22.3152 2.03435C21.3994 2.5149 20.1499 3.2555 19.5394 3.67951L16.7748 5.60734C13.9675 7.65695 10.9573 9.41306 7.79148 10.8481L7 11.2212L7.56535 11.5039C8.83295 12.0253 10.2552 12.0253 11.5228 11.5039C13.8859 10.6107 20.0934 6.53451 20.6644 5.52254C21.1336 4.69713 21.388 4.90066 21.4107 6.1218C21.4873 7.2945 22.0107 8.39315 22.8732 9.19144C23.7356 9.98973 24.8714 10.4269 26.0465 10.4128C26.4083 10.4128 26.7023 10.4919 26.7023 10.605C26.7016 10.633 26.6953 10.6605 26.6837 10.686C26.6722 10.7115 26.6556 10.7344 26.6351 10.7534C26.6145 10.7723 26.5904 10.787 26.564 10.7965C26.5377 10.8059 26.5097 10.81 26.4818 10.8085C26.12 10.8085 26.4366 12.3123 26.9511 13.0021C27.6918 13.8942 28.715 14.5065 29.8513 14.7377C30.6056 14.8713 31.3809 14.8228 32.1127 14.5963V14.619ZM54.0028 14.3137C54.0028 14.2062 53.7484 13.9745 53.4375 13.7992C52.2787 13.1637 51.2006 12.3912 50.2263 11.4982C48.5303 9.88701 48.6208 9.92093 47.931 10.3676C47.5975 10.5767 47.3261 10.8933 47.3318 11.0686C47.3318 11.583 49.661 13.5844 50.8369 14.0932C51.9224 14.5624 54.0085 14.7264 54.0028 14.3363V14.3137ZM22.3831 14.3137C22.9702 13.9577 23.5195 13.5429 24.0226 13.0756C25.5377 11.6622 25.5886 11.2043 24.2544 10.9838C23.5251 10.8594 23.4629 10.8933 22.1795 12.2728C21.5972 12.8907 20.9739 13.4686 20.3139 14.0027C19.6864 14.4267 19.6298 14.6585 20.1273 14.7829C20.9169 14.8492 21.7075 14.6674 22.3887 14.2628L22.3831 14.3137ZM40.4741 14.3589C41.0925 14.1641 41.6609 13.8364 42.1394 13.3989C42.6179 12.9614 42.995 12.4247 43.2443 11.8261C43.5044 11.0968 43.5157 10.8651 43.3122 10.622C43.1086 10.3789 43.086 10.3223 43.1256 10.3167L44.7312 10.2375C46.105 10.1414 46.3707 10.0453 47.1395 9.47996C47.7769 9.0235 48.2715 8.3954 48.5658 7.66877C48.86 6.94214 48.9418 6.14687 48.8017 5.37555C48.6321 4.69148 49.2992 5.1268 49.6158 5.90697C49.9324 6.68715 51.5662 8.12878 54.8904 10.4297C57.5871 12.2841 60.8435 13.0077 62.2399 12.0636C62.9805 11.5548 62.9127 11.2382 62.0025 10.9838C60.0407 10.4184 56.2642 8.23054 52.0863 5.19464C46.6873 1.26548 44.8273 0.547495 41.7914 1.22591C41.1582 1.36725 39.9483 2.52621 39.6487 3.28942C39.3879 4.01859 39.3497 4.80882 39.5389 5.55975C39.7282 6.31068 40.1363 6.98843 40.7116 7.5069L41.4861 8.26447L41.0338 8.91461C40.7041 9.53643 40.1618 10.019 39.5059 10.2743C38.85 10.5296 38.1242 10.5406 37.4608 10.3054L36.8955 10.1471L36.9633 12.1823V14.2006L37.6191 14.3759C38.5487 14.6142 39.5254 14.5966 40.4459 14.325L40.4741 14.3589ZM57.2649 13.737C57.6041 13.6013 57.6945 13.0529 57.378 13.0586C57.0614 13.0643 52.957 10.3336 51.5097 9.10118C49.9606 7.76696 49.5875 7.5917 49.3896 8.14009C49.0956 8.94853 49.3105 9.46865 50.362 10.4806C52.81 12.8325 55.9137 14.3024 57.2649 13.754V13.737ZM18.9458 13.6918C19.7889 13.1902 20.599 12.635 21.3711 12.0297L22.9032 10.8368L22.2643 10.1527C22.0331 9.87945 21.7532 9.65135 21.4389 9.47996C21.005 9.75686 20.6047 10.0832 20.2461 10.4524C19.0851 11.5733 17.7923 12.5491 16.396 13.3582C15.3841 13.9236 15.3332 14.1497 16.2095 14.2402C17.167 14.3478 18.1332 14.135 18.9571 13.6353L18.9458 13.6918ZM15.6328 12.6459C16.6957 12.0805 21.0715 9.2199 21.0658 9.0503C20.8958 8.36665 20.6151 7.71543 20.2347 7.12247C20.1499 7.12247 18.9401 8.01571 17.538 9.10683C15.3332 10.8311 12.6026 12.4989 11.9355 12.4989C11.4606 12.4989 11.7715 12.9003 12.3877 13.0643C12.9276 13.2228 13.4944 13.2684 14.0526 13.1984C14.6109 13.1284 15.1488 12.9442 15.6328 12.6572V12.6459Z" fill="#118B0F"/>
</svg>
