<svg width="50" height="50" viewBox="0 0 50 50" fill="none" xmlns="http://www.w3.org/2000/svg">
<path d="M28.9756 32.0488H10.122C9.01738 32.0488 8.12195 31.1534 8.12195 30.0488V11C8.12195 9.89543 9.01738 9 10.122 9H43.2439V13.0244M28.9756 41.9268H7C4.79086 41.9268 3 40.136 3 37.9268V36.439H28.9756M46 17.7805H35.7317C34.6271 17.7805 33.7317 18.6759 33.7317 19.7805V39.9268C33.7317 41.0314 34.6271 41.9268 35.7317 41.9268H46C47.1046 41.9268 48 41.0314 48 39.9268V19.7805C48 18.6759 47.1046 17.7805 46 17.7805Z" stroke="white" stroke-width="2" stroke-linecap="round"/>
<rect x="39.2197" y="35.7075" width="2.92683" height="2.19512" rx="1" fill="white"/>
</svg>
