<svg width="127" height="26" viewBox="0 0 127 26" fill="none" xmlns="http://www.w3.org/2000/svg">
<path d="M12.6972 0.698063C12.6972 0.312534 12.384 0 11.9978 0C11.6115 0 11.2984 0.312534 11.2984 0.698063V4.71769C11.2984 4.92159 11.0513 5.02371 10.9069 4.87953L8.84845 2.82506C8.57532 2.55245 8.13247 2.55245 7.85934 2.82506C7.5862 3.09767 7.5862 3.53966 7.85934 3.81227L10.8954 6.84245C11.1534 7.09998 11.2984 7.44927 11.2984 7.81347V11.3906C11.2984 11.5668 11.1073 11.6769 10.9544 11.5888L7.84057 9.79454C7.52455 9.61244 7.29395 9.3125 7.19951 8.9607L6.08824 4.8214C5.98827 4.449 5.60475 4.22801 5.23164 4.32779C4.85853 4.42757 4.63711 4.81035 4.73708 5.18274L5.49052 7.9892C5.5434 8.18616 5.33129 8.3486 5.15436 8.24665L1.67647 6.24256C1.34195 6.04979 0.914201 6.16419 0.721061 6.49807C0.527921 6.83194 0.642541 7.25887 0.977061 7.45164L4.45883 9.45796C4.63575 9.55992 4.60086 9.82447 4.40352 9.87725L1.58553 10.6309C1.21242 10.7307 0.991001 11.1134 1.09097 11.4858C1.19095 11.8582 1.57446 12.0792 1.94757 11.9794L6.10098 10.8687C6.45345 10.7744 6.82901 10.8238 7.14503 11.0059L10.2572 12.7992C10.4101 12.8873 10.4101 13.1075 10.2572 13.1956L7.13891 14.9925C6.82289 15.1746 6.44734 15.224 6.09486 15.1297L1.94757 14.0206C1.57446 13.9208 1.19095 14.1418 1.09097 14.5142C0.991001 14.8866 1.21242 15.2693 1.58553 15.3691L4.3974 16.1211C4.59474 16.1739 4.62964 16.4384 4.45271 16.5404L0.974821 18.5445C0.640301 18.7373 0.525681 19.1642 0.718821 19.4981C0.911961 19.8319 1.33971 19.9463 1.67423 19.7536L5.156 17.7472C5.33293 17.6453 5.54504 17.8077 5.49216 18.0047L4.73708 20.8173C4.63711 21.1897 4.85853 21.5724 5.23164 21.6722C5.60475 21.772 5.98827 21.551 6.08824 21.1786L7.20114 17.0332C7.29559 16.6814 7.52619 16.3815 7.84221 16.1994L10.9544 14.406C11.1073 14.3179 11.2984 14.428 11.2984 14.6042V18.198C11.2984 18.5622 11.1534 18.9115 10.8954 19.169L7.85934 22.1992C7.5862 22.4718 7.5862 22.9138 7.85934 23.1864C8.13247 23.459 8.57532 23.459 8.84845 23.1864L10.9069 21.1319C11.0513 20.9877 11.2984 21.0899 11.2984 21.2938V25.3019C11.2984 25.6875 11.6115 26 11.9978 26C12.384 26 12.6972 25.6875 12.6972 25.3019V21.2893C12.6972 21.0854 12.9442 20.9833 13.0886 21.1274L15.1516 23.1864C15.4247 23.459 15.8675 23.459 16.1407 23.1864C16.4138 22.9138 16.4138 22.4718 16.1407 22.1992L13.1002 19.1645C12.8421 18.907 12.6972 18.5577 12.6972 18.1935V14.6016C12.6972 14.4254 12.8883 14.3153 13.0411 14.4034L16.1479 16.1936C16.4639 16.3757 16.6945 16.6757 16.7889 17.0275L17.9018 21.1729C18.0018 21.5453 18.3853 21.7663 18.7584 21.6665C19.1316 21.5667 19.353 21.1839 19.253 20.8115L18.4979 17.999C18.445 17.802 18.6572 17.6396 18.8341 17.7415L22.3258 19.7536C22.6603 19.9463 23.088 19.8319 23.2812 19.4981C23.4743 19.1642 23.3597 18.7373 23.0252 18.5445L19.5374 16.5347C19.3604 16.4327 19.3953 16.1682 19.5927 16.1154L22.4046 15.3634C22.7777 15.2636 22.9991 14.8809 22.8991 14.5085C22.7991 14.1361 22.4156 13.9151 22.0425 14.0149L17.8952 15.124C17.5427 15.2182 17.1672 15.1689 16.8512 14.9868L13.7428 13.1956C13.5899 13.1075 13.5899 12.8873 13.7428 12.7992L16.845 11.0116C17.1611 10.8295 17.5366 10.7801 17.8891 10.8744L22.0425 11.9851C22.4156 12.0849 22.7991 11.8639 22.8991 11.4915C22.9991 11.1192 22.7777 10.7364 22.4046 10.6366L19.5866 9.88297C19.3892 9.83019 19.3543 9.56564 19.5312 9.46368L23.0229 7.45164C23.3575 7.25887 23.4721 6.83194 23.2789 6.49807C23.0858 6.16419 22.6581 6.04979 22.3235 6.24256L18.8357 8.25236C18.6588 8.35431 18.4467 8.19187 18.4996 7.99492L19.253 5.18846C19.353 4.81607 19.1316 4.4333 18.7584 4.33351C18.3853 4.23373 18.0018 4.45473 17.9018 4.82712L16.7906 8.96642C16.6961 9.31821 16.4655 9.61815 16.1495 9.80025L13.0411 11.5914C12.8883 11.6795 12.6972 11.5694 12.6972 11.3932V7.81794C12.6972 7.45374 12.8421 7.10445 13.1002 6.84692L16.1407 3.81227C16.4138 3.53966 16.4138 3.09767 16.1407 2.82506C15.8675 2.55245 15.4247 2.55245 15.1516 2.82506L13.0886 4.88399C12.9442 5.02818 12.6972 4.92606 12.6972 4.72216V0.698063Z" fill="#95A4FC"/>
<path d="M32.7841 19V7.36364H34.1932V17.75H39.6023V19H32.7841ZM42.8823 19V10.2727H44.2232V19H42.8823ZM43.5641 8.81818C43.3027 8.81818 43.0773 8.72917 42.888 8.55114C42.7023 8.37311 42.6095 8.15909 42.6095 7.90909C42.6095 7.65909 42.7023 7.44508 42.888 7.26705C43.0773 7.08902 43.3027 7 43.5641 7C43.8255 7 44.0489 7.08902 44.2345 7.26705C44.4239 7.44508 44.5186 7.65909 44.5186 7.90909C44.5186 8.15909 44.4239 8.37311 44.2345 8.55114C44.0489 8.72917 43.8255 8.81818 43.5641 8.81818ZM55.0955 10.2727L51.8682 19H50.5046L47.2773 10.2727H48.7319L51.141 17.2273H51.2319L53.641 10.2727H55.0955ZM61.492 19.1818C60.6511 19.1818 59.9257 18.9962 59.3159 18.625C58.7098 18.25 58.242 17.7273 57.9124 17.0568C57.5867 16.3826 57.4238 15.5985 57.4238 14.7045C57.4238 13.8106 57.5867 13.0227 57.9124 12.3409C58.242 11.6553 58.7003 11.1212 59.2874 10.7386C59.8784 10.3523 60.5677 10.1591 61.3556 10.1591C61.8102 10.1591 62.259 10.2348 62.7022 10.3864C63.1454 10.5379 63.5488 10.7841 63.9124 11.125C64.2761 11.4621 64.5659 11.9091 64.7818 12.4659C64.9977 13.0227 65.1056 13.7083 65.1056 14.5227V15.0909H58.3784V13.9318H63.742C63.742 13.4394 63.6435 13 63.4465 12.6136C63.2534 12.2273 62.9768 11.9223 62.617 11.6989C62.2609 11.4754 61.8405 11.3636 61.3556 11.3636C60.8215 11.3636 60.3594 11.4962 59.9693 11.7614C59.5829 12.0227 59.2855 12.3636 59.0772 12.7841C58.8689 13.2045 58.7647 13.6553 58.7647 14.1364V14.9091C58.7647 15.5682 58.8784 16.1269 59.1056 16.5852C59.3367 17.0398 59.6568 17.3864 60.0659 17.625C60.4749 17.8598 60.9503 17.9773 61.492 17.9773C61.8443 17.9773 62.1624 17.928 62.4465 17.8295C62.7344 17.7273 62.9825 17.5758 63.1909 17.375C63.3992 17.1705 63.5602 16.9167 63.6738 16.6136L64.9693 16.9773C64.8329 17.4167 64.6037 17.803 64.2818 18.1364C63.9598 18.4659 63.5621 18.7235 63.0886 18.9091C62.6151 19.0909 62.0829 19.1818 61.492 19.1818ZM81.8602 10.2727V11.4091H77.3375V10.2727H81.8602ZM78.6557 8.18182H79.9966V16.5C79.9966 16.8788 80.0515 17.1629 80.1614 17.3523C80.275 17.5379 80.4189 17.6629 80.5932 17.7273C80.7712 17.7879 80.9587 17.8182 81.1557 17.8182C81.3034 17.8182 81.4246 17.8106 81.5193 17.7955C81.614 17.7765 81.6898 17.7614 81.7466 17.75L82.0193 18.9545C81.9284 18.9886 81.8015 19.0227 81.6386 19.0568C81.4758 19.0947 81.2693 19.1136 81.0193 19.1136C80.6405 19.1136 80.2693 19.0322 79.9057 18.8693C79.5458 18.7064 79.2466 18.4583 79.008 18.125C78.7731 17.7917 78.6557 17.3712 78.6557 16.8636V8.18182ZM85.1573 19V10.2727H86.4527V11.5909H86.5436C86.7027 11.1591 86.9906 10.8087 87.4073 10.5398C87.8239 10.2708 88.2936 10.1364 88.8164 10.1364C88.9148 10.1364 89.038 10.1383 89.1857 10.142C89.3334 10.1458 89.4452 10.1515 89.5209 10.1591V11.5227C89.4755 11.5114 89.3713 11.4943 89.2084 11.4716C89.0493 11.4451 88.8808 11.4318 88.7027 11.4318C88.2785 11.4318 87.8997 11.5208 87.5664 11.6989C87.2368 11.8731 86.9755 12.1155 86.7823 12.4261C86.5929 12.733 86.4982 13.0833 86.4982 13.4773V19H85.1573ZM95.7839 19.1818C94.943 19.1818 94.2176 18.9962 93.6077 18.625C93.0017 18.25 92.5339 17.7273 92.2043 17.0568C91.8786 16.3826 91.7157 15.5985 91.7157 14.7045C91.7157 13.8106 91.8786 13.0227 92.2043 12.3409C92.5339 11.6553 92.9922 11.1212 93.5793 10.7386C94.1702 10.3523 94.8596 10.1591 95.6475 10.1591C96.102 10.1591 96.5509 10.2348 96.9941 10.3864C97.4373 10.5379 97.8407 10.7841 98.2043 11.125C98.568 11.4621 98.8577 11.9091 99.0736 12.4659C99.2895 13.0227 99.3975 13.7083 99.3975 14.5227V15.0909H92.6702V13.9318H98.0339C98.0339 13.4394 97.9354 13 97.7384 12.6136C97.5452 12.2273 97.2687 11.9223 96.9089 11.6989C96.5528 11.4754 96.1323 11.3636 95.6475 11.3636C95.1134 11.3636 94.6513 11.4962 94.2611 11.7614C93.8748 12.0227 93.5774 12.3636 93.3691 12.7841C93.1608 13.2045 93.0566 13.6553 93.0566 14.1364V14.9091C93.0566 15.5682 93.1702 16.1269 93.3975 16.5852C93.6286 17.0398 93.9486 17.3864 94.3577 17.625C94.7668 17.8598 95.2422 17.9773 95.7839 17.9773C96.1361 17.9773 96.4543 17.928 96.7384 17.8295C97.0263 17.7273 97.2744 17.5758 97.4827 17.375C97.6911 17.1705 97.852 16.9167 97.9657 16.6136L99.2611 16.9773C99.1248 17.4167 98.8956 17.803 98.5736 18.1364C98.2517 18.4659 97.8539 18.7235 97.3805 18.9091C96.907 19.0909 96.3748 19.1818 95.7839 19.1818ZM105.285 19.2045C104.732 19.2045 104.231 19.1004 103.78 18.892C103.329 18.6799 102.971 18.375 102.706 17.9773C102.441 17.5758 102.308 17.0909 102.308 16.5227C102.308 16.0227 102.407 15.6174 102.604 15.3068C102.801 14.9924 103.064 14.7462 103.393 14.5682C103.723 14.3902 104.087 14.2576 104.484 14.1705C104.886 14.0795 105.289 14.0076 105.695 13.9545C106.225 13.8864 106.655 13.8352 106.984 13.8011C107.318 13.7633 107.56 13.7008 107.712 13.6136C107.867 13.5265 107.945 13.375 107.945 13.1591V13.1136C107.945 12.553 107.791 12.1174 107.484 11.8068C107.181 11.4962 106.721 11.3409 106.104 11.3409C105.463 11.3409 104.962 11.4811 104.598 11.7614C104.234 12.0417 103.979 12.3409 103.831 12.6591L102.558 12.2045C102.785 11.6742 103.088 11.2614 103.467 10.9659C103.85 10.6667 104.267 10.4583 104.717 10.3409C105.172 10.2197 105.619 10.1591 106.058 10.1591C106.338 10.1591 106.66 10.1932 107.024 10.2614C107.392 10.3258 107.746 10.4602 108.087 10.6648C108.431 10.8693 108.717 11.178 108.945 11.5909C109.172 12.0038 109.285 12.5568 109.285 13.25V19H107.945V17.8182H107.876C107.785 18.0076 107.634 18.2102 107.422 18.4261C107.21 18.642 106.927 18.8258 106.575 18.9773C106.223 19.1288 105.793 19.2045 105.285 19.2045ZM105.49 18C106.02 18 106.467 17.8958 106.831 17.6875C107.198 17.4792 107.475 17.2102 107.66 16.8807C107.85 16.5511 107.945 16.2045 107.945 15.8409V14.6136C107.888 14.6818 107.763 14.7443 107.57 14.8011C107.38 14.8542 107.16 14.9015 106.91 14.9432C106.664 14.9811 106.424 15.0152 106.189 15.0455C105.958 15.072 105.77 15.0947 105.626 15.1136C105.278 15.1591 104.952 15.233 104.649 15.3352C104.35 15.4337 104.107 15.5833 103.922 15.7841C103.74 15.9811 103.649 16.25 103.649 16.5909C103.649 17.0568 103.821 17.4091 104.166 17.6477C104.515 17.8826 104.956 18 105.49 18ZM113.013 19V10.2727H114.308V11.6364H114.422C114.604 11.1705 114.897 10.8087 115.303 10.5511C115.708 10.2898 116.195 10.1591 116.763 10.1591C117.339 10.1591 117.818 10.2898 118.2 10.5511C118.587 10.8087 118.888 11.1705 119.104 11.6364H119.195C119.418 11.1856 119.753 10.8277 120.2 10.5625C120.647 10.2936 121.183 10.1591 121.808 10.1591C122.589 10.1591 123.227 10.4034 123.723 10.892C124.219 11.3769 124.467 12.1326 124.467 13.1591V19H123.127V13.1591C123.127 12.5152 122.95 12.0549 122.598 11.7784C122.246 11.5019 121.831 11.3636 121.354 11.3636C120.74 11.3636 120.265 11.5492 119.928 11.9205C119.591 12.2879 119.422 12.7538 119.422 13.3182V19H118.058V13.0227C118.058 12.5265 117.897 12.1269 117.575 11.8239C117.253 11.517 116.839 11.3636 116.331 11.3636C115.983 11.3636 115.657 11.4564 115.354 11.642C115.055 11.8277 114.812 12.0852 114.627 12.4148C114.445 12.7405 114.354 13.1174 114.354 13.5455V19H113.013Z" fill="white"/>
<path d="M74.6072 12.2273L73.4027 12.5682C73.3269 12.3674 73.2152 12.1723 73.0674 11.983C72.9235 11.7898 72.7265 11.6307 72.4765 11.5057C72.2265 11.3807 71.9065 11.3182 71.5163 11.3182C70.9822 11.3182 70.5371 11.4413 70.1811 11.6875C69.8288 11.9299 69.6527 12.2386 69.6527 12.6136C69.6527 12.947 69.7739 13.2102 70.0163 13.4034C70.2587 13.5966 70.6375 13.7576 71.1527 13.8864L72.4481 14.2045C73.2284 14.3939 73.8099 14.6837 74.1924 15.0739C74.575 15.4602 74.7663 15.9583 74.7663 16.5682C74.7663 17.0682 74.6224 17.5152 74.3345 17.9091C74.0504 18.303 73.6527 18.6136 73.1413 18.8409C72.6299 19.0682 72.0352 19.1818 71.3572 19.1818C70.4671 19.1818 69.7303 18.9886 69.147 18.6023C68.5637 18.2159 68.1943 17.6515 68.039 16.9091L69.3118 16.5909C69.433 17.0606 69.6621 17.4129 69.9993 17.6477C70.3402 17.8826 70.7852 18 71.3345 18C71.9595 18 72.4557 17.8674 72.8231 17.6023C73.1943 17.3333 73.3799 17.0114 73.3799 16.6364C73.3799 16.3333 73.2739 16.0795 73.0618 15.875C72.8496 15.6667 72.5239 15.5114 72.0845 15.4091L70.6299 15.0682C69.8307 14.8788 69.2436 14.5852 68.8686 14.1875C68.4974 13.786 68.3118 13.2841 68.3118 12.6818C68.3118 12.1894 68.45 11.7538 68.7265 11.375C69.0068 10.9962 69.3875 10.6989 69.8686 10.483C70.3534 10.267 70.9027 10.1591 71.5163 10.1591C72.3799 10.1591 73.058 10.3485 73.5504 10.7273C74.0466 11.1061 74.3989 11.6061 74.6072 12.2273Z" fill="#95A4FC"/>
</svg>
